HIERARCHY
ROOT hip
{
	OFFSET 0.000000 0.000000 0.000000 
	CHANNELS 6 Xposition Yposition Zposition Xrotation Zrotation Yrotation
	JOINT abdomen
	{
		OFFSET 0.000000 3.402643 0.000000 
		CHANNELS 3 Xrotation Zrotation Yrotation
		JOINT chest
		{
			OFFSET 0.000000 8.438565 -0.680529 
			CHANNELS 3 Xrotation Zrotation Yrotation
			JOINT neck
			{
				OFFSET 0.000000 10.207942 -0.272212 
				CHANNELS 3 Xrotation Zrotation Yrotation
				JOINT head
				{
					OFFSET 0.000000 3.130431 0.000000 
					CHANNELS 3 Xrotation Zrotation Yrotation
					End Site
					{
						OFFSET 0.000000 3.130435 0.000000 
					}
				}
			}
			JOINT lCollar
			{
				OFFSET 3.470700 6.669187 -0.816635 
				CHANNELS 3 Yrotation Zrotation Xrotation
				JOINT lShldr
				{
					OFFSET 3.198488 0.000000 0.000000 
					CHANNELS 3 Zrotation Yrotation Xrotation
					JOINT lForeArm
					{
						OFFSET 10.139888 0.000000 0.000000 
						CHANNELS 3 Yrotation Zrotation Xrotation
						JOINT lHand
						{
							OFFSET 8.370511 0.000000 0.000000 
							CHANNELS 3 Zrotation Yrotation Xrotation
							End Site
							{
								OFFSET 4.083176 0.000000 0.000000 
							}
						}
					}
				}
			}
			JOINT rCollar
			{
				OFFSET -3.470700 6.669187 -0.816635 
				CHANNELS 3 Yrotation Zrotation Xrotation
				JOINT rShldr
				{
					OFFSET -3.198488 0.000000 0.000000 
					CHANNELS 3 Zrotation Yrotation Xrotation
					JOINT rForeArm
					{
						OFFSET -10.139888 0.000000 0.000000 
						CHANNELS 3 Yrotation Zrotation Xrotation
						JOINT rHand
						{
							OFFSET -8.370511 0.000000 0.000000 
							CHANNELS 3 Zrotation Yrotation Xrotation
							End Site
							{
								OFFSET -4.083176 0.000000 0.000000 
							}
						}
					}
				}
			}
		}
	}
	JOINT lThigh
	{
		OFFSET 5.308129 -1.633274 1.361059 
		CHANNELS 3 Xrotation Zrotation Yrotation
		JOINT lShin
		{
			OFFSET -2.041588 -20.007561 0.000000 
			CHANNELS 3 Xrotation Zrotation Yrotation
			JOINT lFoot
			{
				OFFSET 0.000000 -19.190928 -1.224953 
				CHANNELS 3 Xrotation Yrotation Zrotation
				End Site
				{
					OFFSET 0.000000 -2.449906 4.627600 
				}
			}
		}
	}
	JOINT rThigh
	{
		OFFSET -5.308129 -1.633274 1.361059 
		CHANNELS 3 Xrotation Zrotation Yrotation
		JOINT rShin
		{
			OFFSET 2.041588 -20.007561 0.000000 
			CHANNELS 3 Xrotation Zrotation Yrotation
			JOINT rFoot
			{
				OFFSET 0.000000 -19.190928 -1.224953 
				CHANNELS 3 Xrotation Yrotation Zrotation
				End Site
				{
					OFFSET 0.000000 -2.449906 4.627600 
				}
			}
		}
	}
}
MOTION
Frames: 8
Frame Time: 0.016667
0.763083 43.766781 -3.189316 -1.390300 -4.110120 -20.535400 -14.979300 0.620790 0.659022 16.434999 0.954557 0.292555 22.837900 -7.317300 2.739980 -8.603520 0.000000 0.000000 2.000000 -2.000000 0.000000 -89.372597 10.666400 -153.567001 118.897003 -0.144062 0.138045 5.498290 0.913100 -159.759003 -2.000000 2.000000 0.000000 87.227501 0.228108 -130.526993 -122.616997 0.146417 0.097180 5.846690 3.248860 -143.735001 -11.479398 4.726496 6.049395 37.329842 2.813469 2.609206 -26.187283 12.790021 7.254405 -8.421519 2.258996 13.655047 22.037367 -3.375485 -1.561216 -14.683730 -5.478913 -1.215564 
0.761926 43.766129 -3.214930 -1.439270 -4.119800 -20.267900 -14.881500 0.650955 0.711961 16.591299 0.935256 0.325805 22.399099 -7.086320 3.102700 -8.603520 0.000000 0.000000 2.000000 -2.000000 0.000000 -89.459801 10.110700 -153.115997 119.033997 -0.143756 0.137876 5.499380 0.912703 -159.690002 -2.000000 2.000000 0.000000 87.295700 0.208396 -130.410004 -123.056999 0.145599 0.096653 5.847800 3.248040 -143.714996 -11.569737 4.723303 5.895887 37.389629 2.809103 2.626377 -26.103914 12.764377 7.213763 -8.381053 2.261535 13.541798 22.045296 -3.386111 -1.553371 -14.792315 -5.552338 -1.249878 
0.761924 43.762627 -3.251249 -1.478450 -4.129490 -19.971901 -14.764000 0.684588 0.774198 16.747499 0.925685 0.358301 22.119900 -7.008210 3.201840 -8.603520 0.000000 0.000000 2.000000 -2.000000 0.000000 -89.488297 9.516050 -152.606995 119.190002 -0.143407 0.137681 5.496790 0.903250 -159.641006 -2.000000 2.000000 0.000000 87.462303 0.365191 -130.761002 -123.417999 0.144929 0.096214 5.890000 3.160220 -142.925995 -11.593282 4.720962 5.769186 37.399899 2.801596 2.623646 -25.991516 12.693754 7.124768 -8.284984 2.249385 13.453732 22.016193 -3.387994 -1.573498 -14.893338 -5.648858 -1.286098 
0.770194 43.758602 -3.289162 -1.507910 -4.178250 -19.656000 -14.734500 0.711225 0.817621 16.747601 0.857477 0.382373 22.140200 -6.961800 3.165650 -8.603520 0.000000 0.000000 2.000000 -2.000000 0.000000 -89.477798 9.116760 -152.089005 119.375000 -0.142993 0.137449 5.496950 0.903194 -159.632004 -2.000000 2.000000 0.000000 87.588699 0.374472 -130.449005 -123.662003 0.144478 0.095915 5.837740 3.260400 -143.822998 -11.677939 4.739623 5.576027 37.468994 2.798563 2.631452 -25.917402 12.579488 7.046924 -8.263088 2.293037 13.396369 22.004705 -3.393519 -1.555172 -15.021953 -5.800182 -1.374890 
0.785269 43.754841 -3.319248 -1.517820 -4.236800 -19.370600 -14.685600 0.746504 0.828800 16.816000 0.808820 0.396346 22.066401 -6.806790 3.275370 -8.603520 0.000000 0.000000 2.000000 -2.000000 0.000000 -89.555298 8.746530 -151.677994 119.531998 -0.142646 0.137253 5.497100 0.903137 -159.621994 -2.000000 2.000000 0.000000 87.647102 0.384101 -130.360992 -124.042999 0.143777 0.095445 5.833600 3.251310 -143.792999 -11.765656 4.761958 5.333396 37.508293 2.796281 2.629958 -25.844458 12.471163 6.952564 -8.223942 2.346488 13.311508 21.984295 -3.398000 -1.556191 -15.155046 -5.945880 -1.438924 
0.801842 43.753414 -3.349365 -1.537370 -4.217240 -19.125500 -14.519700 0.765711 0.825057 17.079700 0.799308 0.400661 22.118099 -6.799170 3.229420 -8.603520 0.000000 0.000000 2.000000 -2.000000 0.000000 -89.662102 8.161410 -151.285995 119.649002 -0.142385 0.137105 5.497100 0.903137 -159.621994 -2.000000 2.000000 0.000000 87.695801 0.569497 -130.263000 -124.444000 0.143044 0.094946 5.834160 3.250900 -143.783997 -11.836599 4.707193 5.160959 37.517799 2.794574 2.619515 -25.793684 12.421090 6.911682 -8.223488 2.303290 13.185336 21.975452 -3.393678 -1.565199 -15.221533 -6.018390 -1.471433 
0.823472 43.752243 -3.375585 -1.635060 -4.109660 -18.945601 -14.529100 0.741594 0.871357 16.982100 0.769984 0.420656 22.693100 -6.988230 2.887480 -8.603520 0.000000 0.000000 2.000000 -2.000000 0.000000 -89.739601 7.830380 -150.807007 119.805000 -0.142038 0.136907 5.497260 0.903081 -159.612000 -2.000000 2.000000 0.000000 87.812798 0.471691 -130.164993 -124.805000 0.142385 0.094491 5.846690 3.248860 -143.735001 -11.825628 4.507051 5.022496 37.488964 2.792288 2.629027 -25.729961 12.496801 6.906170 -8.183955 2.125730 13.094790 22.034924 -3.386757 -1.543908 -15.321791 -6.081254 -1.511467 
0.854037 43.748863 -3.397536 -1.781670 -3.992220 -18.811800 -14.470100 0.653993 0.914420 16.982201 0.662771 0.437118 22.949100 -7.229850 2.714440 -8.603520 0.000000 0.000000 2.000000 -2.000000 0.000000 -89.758499 7.421180 -150.347000 119.960999 -0.141692 0.136708 5.497720 0.902912 -159.582993 -2.000000 2.000000 0.000000 87.998100 0.481231 -130.018997 -125.108002 0.141835 0.094106 5.847500 3.236110 -143.617996 -11.781683 4.271627 4.902660 37.488392 2.795209 2.620282 -25.726015 12.554597 6.922315 -8.204131 1.977275 13.017576 22.245970 -3.435176 -1.569758 -15.412009 -6.124600 -1.519406 
